# xmcd CD database file
#
# Track frame offsets:
#	150
#	20900
#	43160
#	58422
#	81107
#	104402
#	127095
#	144382
#	160982
#	178725
#
# Disc length: 2664 seconds
#
# Revision: 1
# Processed by: cddbd v1.5PL3 Copyright (c) Steve Scherf et al.
# Submitted via: CDex 1.50Beta3
#
DISCID=950a660a
DTITLE=miyuki - babyface
DYEAR=1997
DGENRE=Jazz
TTITLE0=キレイになるから
TTITLE1=その彼の名は？
TTITLE2=とりこにしてみせる
TTITLE3=月曜日
TTITLE4=土曜のlunch
TTITLE5=ドアの向こう
TTITLE6=よろしく頼みます
TTITLE7=いいじゃない
TTITLE8=キスしていい？
TTITLE9=好きと言えない
EXTD=YEAR: 1997/04/21
EXTT0=
EXTT1=
EXTT2=
EXTT3=
EXTT4=
EXTT5=
EXTT6=
EXTT7=
EXTT8=
EXTT9=
PLAYORDER=
